<svg xmlns="http://www.w3.org/2000/svg" xmlns:xlink="http://www.w3.org/1999/xlink" width="500" zoomAndPan="magnify" viewBox="0 0 375 374.999991" height="500" preserveAspectRatio="xMidYMid meet" version="1.0"><defs><g/><clipPath id="1c45d1616e"><path d="M 97 47.574219 L 288 47.574219 L 288 111 L 97 111 Z M 97 47.574219 " clip-rule="nonzero"/></clipPath><clipPath id="f1061589e6"><path d="M 73.566406 101 L 312 101 L 312 236.574219 L 73.566406 236.574219 Z M 73.566406 101 " clip-rule="nonzero"/></clipPath></defs><g clip-path="url(#1c45d1616e)"><path fill="#0092b1" d="M 106.703125 110.257812 C 107.6875 108.265625 108.742188 106.3125 109.863281 104.394531 C 110.988281 102.480469 112.171875 100.601562 113.425781 98.769531 C 114.679688 96.933594 115.992188 95.144531 117.367188 93.402344 C 118.746094 91.65625 120.179688 89.964844 121.675781 88.320312 C 123.167969 86.675781 124.71875 85.085938 126.324219 83.550781 C 127.925781 82.015625 129.582031 80.535156 131.289062 79.113281 C 132.996094 77.695312 134.75 76.332031 136.554688 75.035156 C 138.355469 73.734375 140.199219 72.5 142.085938 71.328125 C 143.972656 70.15625 145.898438 69.054688 147.863281 68.015625 C 149.828125 66.976562 151.824219 66.011719 153.855469 65.113281 C 155.890625 64.214844 157.949219 63.386719 160.039062 62.628906 C 162.125 61.875 164.238281 61.191406 166.375 60.582031 C 168.511719 59.972656 170.664062 59.441406 172.839844 58.980469 C 175.011719 58.523438 177.199219 58.136719 179.398438 57.832031 C 181.597656 57.523438 183.808594 57.292969 186.023438 57.140625 C 188.238281 56.984375 190.457031 56.90625 192.679688 56.90625 C 194.898438 56.90625 197.117188 56.984375 199.335938 57.140625 C 201.550781 57.292969 203.757812 57.523438 205.957031 57.832031 C 208.15625 58.136719 210.34375 58.523438 212.519531 58.980469 C 214.691406 59.441406 216.847656 59.972656 218.980469 60.582031 C 221.117188 61.191406 223.230469 61.875 225.320312 62.628906 C 227.40625 63.386719 229.46875 64.214844 231.5 65.113281 C 233.53125 66.011719 235.527344 66.976562 237.492188 68.015625 C 239.457031 69.054688 241.382812 70.15625 243.269531 71.328125 C 245.15625 72.5 247.003906 73.734375 248.804688 75.035156 C 250.605469 76.332031 252.359375 77.695312 254.066406 79.113281 C 255.773438 80.535156 257.429688 82.015625 259.035156 83.550781 C 260.640625 85.085938 262.1875 86.675781 263.683594 88.320312 C 265.175781 89.964844 266.613281 91.65625 267.988281 93.402344 C 269.363281 95.144531 270.679688 96.933594 271.929688 98.769531 C 273.183594 100.601562 274.371094 102.480469 275.492188 104.394531 C 276.613281 106.3125 277.667969 108.265625 278.65625 110.257812 C 280.945312 109.027344 286.894531 107.578125 287.652344 107.511719 C 286.589844 105.28125 285.453125 103.09375 284.238281 100.945312 C 283.019531 98.792969 281.730469 96.691406 280.367188 94.632812 C 279.003906 92.574219 277.570312 90.566406 276.0625 88.609375 C 274.558594 86.652344 272.984375 84.75 271.347656 82.90625 C 269.707031 81.058594 268.003906 79.273438 266.238281 77.546875 C 264.476562 75.820312 262.652344 74.15625 260.769531 72.558594 C 258.886719 70.960938 256.949219 69.429688 254.960938 67.96875 C 252.972656 66.507812 250.933594 65.117188 248.84375 63.800781 C 246.757812 62.480469 244.625 61.238281 242.449219 60.070312 C 240.273438 58.902344 238.0625 57.8125 235.808594 56.800781 C 233.558594 55.789062 231.273438 54.855469 228.953125 54.003906 C 226.636719 53.152344 224.292969 52.386719 221.921875 51.699219 C 219.546875 51.011719 217.15625 50.410156 214.742188 49.894531 C 212.328125 49.375 209.898438 48.945312 207.453125 48.597656 C 205.007812 48.25 202.554688 47.992188 200.089844 47.816406 C 197.628906 47.644531 195.164062 47.558594 192.695312 47.558594 C 190.222656 47.558594 187.757812 47.644531 185.296875 47.816406 C 182.832031 47.992188 180.378906 48.25 177.933594 48.597656 C 175.488281 48.945312 173.058594 49.375 170.644531 49.894531 C 168.230469 50.410156 165.839844 51.011719 163.46875 51.699219 C 161.09375 52.386719 158.75 53.152344 156.433594 54.003906 C 154.117188 54.855469 151.832031 55.789062 149.578125 56.800781 C 147.328125 57.8125 145.113281 58.902344 142.9375 60.070312 C 140.761719 61.238281 138.628906 62.480469 136.542969 63.800781 C 134.453125 65.117188 132.417969 66.507812 130.425781 67.96875 C 128.4375 69.429688 126.5 70.960938 124.617188 72.558594 C 122.734375 74.15625 120.914062 75.820312 119.148438 77.546875 C 117.382812 79.273438 115.679688 81.058594 114.039062 82.90625 C 112.402344 84.75 110.828125 86.652344 109.324219 88.609375 C 107.820312 90.566406 106.382812 92.574219 105.019531 94.632812 C 103.65625 96.691406 102.367188 98.792969 101.152344 100.945312 C 99.933594 103.09375 98.796875 105.28125 97.734375 107.511719 C 98.449219 107.578125 104.417969 109.027344 106.703125 110.257812 Z M 106.703125 110.257812 " fill-opacity="1" fill-rule="nonzero"/></g><path fill="#4a90e2" d="M 308.5625 121.410156 L 308.023438 118.519531 C 307.902344 117.851562 307.664062 117.226562 307.316406 116.644531 C 306.964844 116.066406 306.527344 115.5625 305.996094 115.140625 C 305.464844 114.714844 304.878906 114.398438 304.234375 114.1875 C 303.589844 113.976562 302.929688 113.886719 302.25 113.914062 C 296.386719 114.148438 290.164062 114.589844 286.820312 115.105469 C 279.730469 116.191406 270.429688 126.183594 270.429688 126.183594 L 252.375 100.96875 C 246.449219 92.699219 239.726562 85.507812 228.730469 85.507812 L 156.65625 85.507812 C 145.640625 85.507812 138.945312 92.699219 132.992188 100.96875 L 114.925781 126.183594 C 114.925781 126.183594 105.625 116.191406 98.539062 115.097656 C 95.199219 114.582031 88.972656 114.140625 83.113281 113.90625 C 82.4375 113.878906 81.773438 113.96875 81.128906 114.179688 C 80.484375 114.390625 79.894531 114.707031 79.363281 115.128906 C 78.832031 115.550781 78.390625 116.054688 78.042969 116.636719 C 77.691406 117.21875 77.457031 117.84375 77.332031 118.511719 L 76.792969 121.402344 C 75.9375 126.054688 78.707031 127.8125 83.46875 129.125 C 87.4375 130.21875 93.570312 131.78125 95.824219 131.546875 C 99.472656 131.167969 104.882812 128.730469 105.792969 128.429688 L 105.867188 128.511719 C 106.144531 128.8125 106.378906 129.140625 106.574219 129.496094 C 106.773438 129.851562 106.925781 130.226562 107.03125 130.621094 C 107.136719 131.015625 107.199219 131.414062 107.207031 131.820312 C 107.21875 132.226562 107.183594 132.632812 107.097656 133.027344 C 107.011719 133.425781 106.878906 133.808594 106.703125 134.175781 C 106.527344 134.542969 106.308594 134.882812 106.050781 135.199219 C 105.789062 135.511719 105.5 135.792969 105.171875 136.035156 C 104.847656 136.28125 104.496094 136.484375 104.121094 136.644531 C 100.5625 138.207031 95.777344 140.523438 94.609375 142.183594 C 92.136719 144.65625 89.046875 180.6875 88.066406 192.84375 C 88.019531 193.449219 88.046875 194.050781 88.15625 194.652344 C 88.261719 195.253906 88.441406 195.828125 88.695312 196.382812 C 88.949219 196.9375 89.265625 197.449219 89.652344 197.921875 C 90.035156 198.394531 90.476562 198.808594 90.964844 199.167969 L 97.589844 204.023438 L 97.589844 209.9375 C 97.589844 210.195312 97.640625 210.445312 97.742188 210.6875 C 97.839844 210.929688 97.984375 211.140625 98.167969 211.324219 C 98.351562 211.511719 98.5625 211.652344 98.804688 211.753906 C 99.042969 211.855469 99.292969 211.90625 99.554688 211.910156 L 114.730469 212.039062 L 146.230469 175.355469 C 146.230469 173.410156 146.527344 162.5 146.777344 159.945312 L 137.550781 159.945312 L 128.789062 164.953125 C 128.035156 165.378906 127.226562 165.574219 126.359375 165.535156 L 111.566406 164.847656 C 111.15625 164.828125 110.75 164.769531 110.351562 164.675781 C 109.953125 164.582031 109.566406 164.453125 109.191406 164.289062 C 108.816406 164.125 108.457031 163.925781 108.117188 163.695312 C 107.777344 163.464844 107.464844 163.207031 107.171875 162.917969 C 106.882812 162.628906 106.621094 162.316406 106.386719 161.976562 C 106.152344 161.640625 105.953125 161.285156 105.785156 160.910156 C 105.617188 160.539062 105.484375 160.152344 105.386719 159.753906 C 105.289062 159.355469 105.230469 158.949219 105.207031 158.542969 L 104.601562 147.367188 C 104.597656 147.253906 104.617188 147.152344 104.660156 147.050781 C 104.707031 146.949219 104.769531 146.867188 104.855469 146.796875 C 104.941406 146.730469 105.039062 146.683594 105.144531 146.660156 C 105.253906 146.636719 105.359375 146.640625 105.464844 146.667969 L 138.71875 155.566406 L 147.347656 155.566406 C 148.703125 148.875 151.175781 143.828125 157.867188 135.839844 L 126.585938 125.878906 C 126.453125 125.839844 126.328125 125.78125 126.207031 125.710938 C 126.085938 125.640625 125.976562 125.558594 125.878906 125.460938 C 125.777344 125.363281 125.691406 125.253906 125.617188 125.136719 C 125.542969 125.019531 125.480469 124.894531 125.4375 124.761719 C 125.394531 124.628906 125.367188 124.492188 125.355469 124.355469 C 125.34375 124.214844 125.347656 124.078125 125.367188 123.941406 C 125.390625 123.800781 125.425781 123.667969 125.480469 123.539062 C 125.535156 123.410156 125.601562 123.289062 125.683594 123.179688 C 128.984375 118.722656 135.296875 107.617188 142.882812 98.40625 C 143.710938 97.398438 144.710938 96.617188 145.886719 96.058594 C 147.066406 95.5 148.304688 95.222656 149.605469 95.21875 L 235.757812 95.21875 C 237.058594 95.222656 238.296875 95.503906 239.472656 96.058594 C 240.648438 96.617188 241.648438 97.398438 242.472656 98.40625 C 250.058594 107.617188 256.371094 118.722656 259.671875 123.179688 C 259.753906 123.289062 259.824219 123.410156 259.875 123.539062 C 259.929688 123.667969 259.964844 123.800781 259.988281 123.941406 C 260.007812 124.078125 260.015625 124.214844 260.003906 124.355469 C 259.992188 124.492188 259.964844 124.628906 259.917969 124.761719 C 259.875 124.894531 259.816406 125.019531 259.742188 125.136719 C 259.667969 125.253906 259.578125 125.363281 259.480469 125.460938 C 259.378906 125.558594 259.269531 125.640625 259.148438 125.710938 C 259.03125 125.78125 258.902344 125.839844 258.769531 125.878906 L 232.441406 134.390625 C 233.574219 135.042969 234.613281 135.820312 235.5625 136.71875 C 236.507812 137.621094 237.335938 138.621094 238.042969 139.71875 C 238.75 140.816406 239.316406 141.984375 239.742188 143.21875 C 240.167969 144.457031 240.445312 145.722656 240.566406 147.023438 C 242.382812 147.8125 244.003906 148.886719 245.429688 150.253906 C 246.859375 151.625 248.003906 153.195312 248.867188 154.976562 L 279.898438 146.675781 C 280.003906 146.648438 280.109375 146.644531 280.21875 146.667969 C 280.324219 146.691406 280.421875 146.734375 280.507812 146.804688 C 280.589844 146.875 280.65625 146.957031 280.699219 147.058594 C 280.742188 147.160156 280.761719 147.261719 280.757812 147.371094 L 280.148438 158.546875 C 280.128906 158.957031 280.066406 159.363281 279.972656 159.761719 C 279.875 160.160156 279.742188 160.546875 279.574219 160.921875 C 279.40625 161.292969 279.207031 161.648438 278.972656 161.988281 C 278.738281 162.324219 278.476562 162.636719 278.1875 162.925781 C 277.894531 163.214844 277.578125 163.476562 277.242188 163.707031 C 276.902344 163.9375 276.542969 164.132812 276.167969 164.300781 C 275.792969 164.464844 275.40625 164.59375 275.003906 164.6875 C 274.605469 164.777344 274.203125 164.835938 273.792969 164.851562 L 259.003906 165.542969 C 258.136719 165.582031 257.324219 165.386719 256.570312 164.960938 L 250.5 161.5 C 250.558594 162.652344 250.523438 163.804688 250.386719 164.953125 C 252.066406 165.898438 253.507812 167.128906 254.707031 168.644531 C 255.90625 170.160156 256.769531 171.84375 257.304688 173.699219 C 259.777344 181.945312 255.652344 191.148438 246.28125 198.410156 C 243.496094 200.457031 240.503906 202.148438 237.3125 203.480469 C 238.949219 203.777344 240.554688 204.203125 242.125 204.753906 L 249.445312 207.308594 L 249.445312 210.230469 C 249.445312 210.496094 249.496094 210.746094 249.597656 210.992188 C 249.695312 211.234375 249.839844 211.449219 250.027344 211.632812 C 250.214844 211.820312 250.429688 211.964844 250.671875 212.0625 C 250.914062 212.164062 251.167969 212.210938 251.433594 212.210938 L 285.832031 211.914062 C 286.09375 211.914062 286.34375 211.863281 286.582031 211.761719 C 286.824219 211.660156 287.035156 211.515625 287.21875 211.332031 C 287.402344 211.148438 287.542969 210.933594 287.640625 210.695312 C 287.738281 210.453125 287.789062 210.203125 287.789062 209.941406 L 287.789062 204.03125 L 294.414062 199.175781 C 294.90625 198.816406 295.34375 198.402344 295.730469 197.929688 C 296.113281 197.457031 296.433594 196.945312 296.6875 196.390625 C 296.941406 195.835938 297.121094 195.261719 297.226562 194.660156 C 297.332031 194.058594 297.359375 193.457031 297.3125 192.851562 C 296.332031 180.710938 293.246094 144.664062 290.777344 142.191406 C 289.582031 140.53125 284.816406 138.214844 281.265625 136.660156 C 280.890625 136.5 280.539062 136.296875 280.210938 136.050781 C 279.886719 135.804688 279.59375 135.527344 279.335938 135.210938 C 279.074219 134.894531 278.855469 134.554688 278.679688 134.1875 C 278.503906 133.820312 278.371094 133.4375 278.285156 133.035156 C 278.199219 132.636719 278.164062 132.234375 278.175781 131.828125 C 278.183594 131.417969 278.246094 131.019531 278.351562 130.625 C 278.460938 130.230469 278.613281 129.855469 278.808594 129.496094 C 279.007812 129.140625 279.242188 128.8125 279.519531 128.511719 L 279.589844 128.4375 C 280.507812 128.738281 285.90625 131.175781 289.558594 131.554688 C 291.832031 131.789062 297.902344 130.226562 301.910156 129.132812 C 306.621094 127.820312 309.429688 126.0625 308.5625 121.410156 Z M 308.5625 121.410156 " fill-opacity="1" fill-rule="nonzero"/><g clip-path="url(#f1061589e6)"><path fill="#0092b1" d="M 190.128906 228.902344 L 191.265625 226.96875 C 191.800781 226.050781 192.507812 225.296875 193.386719 224.703125 C 194.261719 224.109375 195.226562 223.734375 196.273438 223.578125 C 219.132812 220.222656 231.214844 208.964844 235.492188 197.628906 C 238.355469 197.265625 240.9375 196.210938 243.230469 194.457031 C 248.960938 190.035156 254.839844 182.78125 252.53125 175.089844 C 252.273438 174.183594 251.894531 173.332031 251.394531 172.53125 C 250.890625 171.734375 250.285156 171.027344 249.578125 170.402344 C 248.871094 169.78125 248.089844 169.269531 247.238281 168.871094 C 246.382812 168.472656 245.492188 168.203125 244.558594 168.0625 C 245.417969 165.816406 245.738281 163.492188 245.523438 161.097656 C 245.460938 160.449219 245.34375 159.8125 245.175781 159.1875 C 245.003906 158.558594 244.785156 157.949219 244.515625 157.359375 C 244.242188 156.769531 243.925781 156.207031 243.558594 155.667969 C 243.191406 155.128906 242.785156 154.628906 242.335938 154.15625 C 241.886719 153.6875 241.402344 153.261719 240.878906 152.871094 C 240.359375 152.484375 239.808594 152.144531 239.230469 151.847656 C 238.652344 151.550781 238.050781 151.304688 237.433594 151.109375 C 236.8125 150.914062 236.179688 150.769531 235.539062 150.679688 C 235.722656 149.464844 235.734375 148.246094 235.582031 147.023438 C 234.785156 140.871094 229.179688 136.933594 223.445312 136.804688 C 223.660156 135.320312 223.632812 133.839844 223.367188 132.367188 C 221.851562 124.089844 210.949219 121.851562 204.664062 126.53125 C 204.265625 126.828125 197.707031 131.289062 193.125 137.378906 C 193.566406 133.484375 193.363281 129.617188 192.519531 125.789062 C 190.207031 115.371094 184.171875 104.734375 173.292969 101.585938 C 169.460938 100.476562 165.214844 100.925781 162.996094 104.621094 C 160.257812 109.171875 163.484375 113.882812 165.136719 118.179688 C 167.617188 124.605469 167.238281 130.566406 163.535156 136.386719 C 160.925781 140.453125 157.46875 143.921875 155.09375 148.148438 C 151.625 154.335938 151.511719 161.804688 151.230469 168.753906 C 151.117188 171.574219 151.230469 177.199219 151.230469 177.199219 L 106.738281 228.902344 L 73.699219 228.902344 L 73.699219 236.308594 L 311.660156 236.308594 L 311.660156 228.902344 Z M 247.746094 177.023438 C 248.875 181.847656 244.792969 186.171875 241.53125 189.164062 C 238.625 191.796875 233.1875 194.859375 230.082031 190.742188 C 228.488281 188.609375 229.074219 185.589844 230.453125 183.238281 C 231.085938 182.828125 231.675781 182.417969 232.238281 182.015625 C 235.582031 179.558594 239.066406 176.703125 241.652344 173.28125 C 244.40625 172.859375 247.007812 173.925781 247.746094 177.054688 Z M 233.890625 155.78125 C 238.625 155.679688 241.289062 160.679688 239.960938 165.640625 C 238.632812 170.605469 234.019531 174.285156 230.097656 177.25 C 226.304688 180.101562 218.1875 185.816406 214.742188 179.761719 C 213.535156 177.628906 214.453125 175.347656 216.015625 173.265625 C 218.496094 172.03125 220.773438 170.496094 222.84375 168.65625 C 226.652344 165.269531 231.371094 160.855469 233.890625 155.78125 Z M 221.539062 142.199219 C 226.851562 141.152344 231.746094 145.460938 230.03125 151.304688 C 228.65625 155.992188 224.871094 159.535156 221.464844 162.820312 C 217.671875 166.476562 211.796875 172.199219 206.199219 168.578125 C 200.941406 165.179688 203.816406 159.617188 207.078125 155.976562 C 207.882812 155.453125 208.671875 154.890625 209.460938 154.316406 C 213.738281 151.21875 218.792969 147.160156 221.539062 142.199219 Z M 195.742188 142.714844 C 198.511719 138.0625 204.929688 132.78125 207.625 130.703125 C 208.238281 130.25 208.90625 129.898438 209.625 129.644531 C 210.34375 129.394531 211.085938 129.253906 211.847656 129.222656 C 212.609375 129.195312 213.359375 129.277344 214.09375 129.476562 C 214.832031 129.671875 215.523438 129.972656 216.167969 130.378906 C 219.339844 132.488281 218.445312 136.726562 217.003906 139.640625 C 214.652344 144.382812 209.660156 147.902344 205.460938 150.886719 C 203.140625 152.53125 199.9375 154.769531 196.90625 153.648438 C 192.199219 151.902344 193.976562 145.71875 195.765625 142.714844 Z M 159.523438 183.09375 C 160.003906 182.488281 160.335938 181.8125 160.523438 181.0625 C 160.707031 180.3125 160.730469 179.558594 160.585938 178.796875 C 158.421875 167.078125 160.359375 154.761719 164.476562 147.03125 C 169.4375 137.738281 173.234375 134.300781 171.746094 123.214844 C 171.292969 120.320312 170.457031 117.539062 169.242188 114.871094 C 168.203125 112.433594 164.871094 107.152344 169.242188 106.25 C 174.160156 105.242188 180.378906 111.5625 182.625 115 C 190.730469 127.253906 189.660156 143.945312 178.871094 156.371094 C 178.664062 156.613281 178.535156 156.890625 178.480469 157.203125 C 178.425781 157.511719 178.449219 157.816406 178.558594 158.117188 C 178.667969 158.414062 178.84375 158.664062 179.085938 158.867188 C 179.328125 159.070312 179.605469 159.199219 179.917969 159.253906 C 183.378906 159.886719 186.636719 161.085938 189.679688 162.851562 C 201.746094 169.722656 208.648438 182.023438 210.28125 196.234375 C 210.316406 196.394531 210.394531 196.53125 210.519531 196.640625 C 210.640625 196.753906 210.785156 196.816406 210.949219 196.832031 C 211.117188 196.847656 211.269531 196.8125 211.410156 196.726562 C 211.554688 196.640625 211.65625 196.523438 211.722656 196.371094 C 212.957031 192.796875 213.261719 189.144531 212.640625 185.414062 C 215.820312 188.070312 220.007812 187.851562 224.019531 186.445312 C 223.808594 187.714844 223.835938 188.972656 224.105469 190.230469 C 224.375 191.484375 224.867188 192.648438 225.582031 193.714844 C 226.628906 195.171875 227.984375 196.246094 229.640625 196.929688 C 222.542969 206.484375 212.949219 215.375 193.109375 215.058594 C 192.089844 215.042969 191.082031 215.136719 190.082031 215.34375 C 189.082031 215.550781 188.117188 215.863281 187.1875 216.28125 C 186.257812 216.699219 185.382812 217.214844 184.5625 217.824219 C 183.746094 218.433594 183.003906 219.125 182.335938 219.898438 L 174.546875 228.902344 L 121.867188 228.902344 C 131.457031 217.324219 153.46875 190.65625 159.546875 183.09375 Z M 159.523438 183.09375 " fill-opacity="1" fill-rule="nonzero"/></g><g fill="#0092b1" fill-opacity="1"><g transform="translate(244.179173, 308.439956)"><g><path d="M 32.203125 0.921875 C 26.710938 0.921875 21.742188 -0.269531 17.296875 -2.65625 C 12.847656 -5.039062 9.351562 -8.351562 6.8125 -12.59375 C 4.269531 -16.832031 3 -21.625 3 -26.96875 C 3 -32.3125 4.269531 -37.097656 6.8125 -41.328125 C 9.351562 -45.566406 12.847656 -48.878906 17.296875 -51.265625 C 21.742188 -53.660156 26.738281 -54.859375 32.28125 -54.859375 C 36.957031 -54.859375 41.179688 -54.035156 44.953125 -52.390625 C 48.734375 -50.742188 51.90625 -48.378906 54.46875 -45.296875 L 46.453125 -37.90625 C 42.804688 -42.113281 38.289062 -44.21875 32.90625 -44.21875 C 29.5625 -44.21875 26.578125 -43.484375 23.953125 -42.015625 C 21.335938 -40.554688 19.296875 -38.515625 17.828125 -35.890625 C 16.367188 -33.273438 15.640625 -30.300781 15.640625 -26.96875 C 15.640625 -23.625 16.367188 -20.640625 17.828125 -18.015625 C 19.296875 -15.398438 21.335938 -13.359375 23.953125 -11.890625 C 26.578125 -10.429688 29.5625 -9.703125 32.90625 -9.703125 C 38.289062 -9.703125 42.804688 -11.835938 46.453125 -16.109375 L 54.46875 -8.703125 C 51.90625 -5.566406 48.722656 -3.175781 44.921875 -1.53125 C 41.117188 0.101562 36.878906 0.921875 32.203125 0.921875 Z M 32.203125 0.921875 "/></g></g></g><g fill="#0092b1" fill-opacity="1"><g transform="translate(295.489278, 308.439956)"><g><path d="M 22.265625 -42.0625 C 28.679688 -42.0625 33.609375 -40.535156 37.046875 -37.484375 C 40.492188 -34.429688 42.21875 -29.820312 42.21875 -23.65625 L 42.21875 0 L 30.96875 0 L 30.96875 -5.15625 C 28.707031 -1.3125 24.5 0.609375 18.34375 0.609375 C 15.15625 0.609375 12.390625 0.0703125 10.046875 -1 C 7.710938 -2.082031 5.925781 -3.570312 4.6875 -5.46875 C 3.457031 -7.375 2.84375 -9.53125 2.84375 -11.9375 C 2.84375 -15.789062 4.296875 -18.820312 7.203125 -21.03125 C 10.109375 -23.238281 14.59375 -24.34375 20.65625 -24.34375 L 30.203125 -24.34375 C 30.203125 -26.96875 29.40625 -28.984375 27.8125 -30.390625 C 26.21875 -31.804688 23.832031 -32.515625 20.65625 -32.515625 C 18.4375 -32.515625 16.257812 -32.164062 14.125 -31.46875 C 12 -30.78125 10.191406 -29.84375 8.703125 -28.65625 L 4.390625 -37.0625 C 6.648438 -38.65625 9.359375 -39.882812 12.515625 -40.75 C 15.679688 -41.625 18.929688 -42.0625 22.265625 -42.0625 Z M 21.34375 -7.46875 C 23.394531 -7.46875 25.21875 -7.941406 26.8125 -8.890625 C 28.40625 -9.847656 29.535156 -11.25 30.203125 -13.09375 L 30.203125 -17.328125 L 21.953125 -17.328125 C 17.023438 -17.328125 14.5625 -15.710938 14.5625 -12.484375 C 14.5625 -10.941406 15.164062 -9.71875 16.375 -8.8125 C 17.582031 -7.914062 19.238281 -7.46875 21.34375 -7.46875 Z M 21.34375 -7.46875 "/></g></g></g><g fill="#0092b1" fill-opacity="1"><g transform="translate(337.862362, 308.439956)"><g><path d="M 17.03125 -35.984375 C 18.46875 -37.984375 20.40625 -39.492188 22.84375 -40.515625 C 25.28125 -41.546875 28.09375 -42.0625 31.28125 -42.0625 L 31.28125 -30.96875 C 29.945312 -31.070312 29.046875 -31.125 28.578125 -31.125 C 25.140625 -31.125 22.441406 -30.160156 20.484375 -28.234375 C 18.535156 -26.304688 17.5625 -23.414062 17.5625 -19.5625 L 17.5625 0 L 5.546875 0 L 5.546875 -41.453125 L 17.03125 -41.453125 Z M 17.03125 -35.984375 "/></g></g></g><g fill="#4a90e2" fill-opacity="1"><g transform="translate(-3.912067, 307.739336)"><g><path d="M 28.96875 -53.9375 C 35.851562 -53.9375 41.242188 -52.289062 45.140625 -49 C 49.046875 -45.71875 51 -41.195312 51 -35.4375 C 51 -29.6875 49.046875 -25.179688 45.140625 -21.921875 C 41.242188 -18.660156 35.851562 -17.03125 28.96875 -17.03125 L 14.484375 -17.03125 L 14.484375 0 L 8.78125 0 L 8.78125 -53.9375 Z M 28.8125 -22.03125 C 34.15625 -22.03125 38.238281 -23.195312 41.0625 -25.53125 C 43.882812 -27.875 45.296875 -31.175781 45.296875 -35.4375 C 45.296875 -39.800781 43.882812 -43.148438 41.0625 -45.484375 C 38.238281 -47.828125 34.15625 -49 28.8125 -49 L 14.484375 -49 L 14.484375 -22.03125 Z M 28.8125 -22.03125 "/></g></g></g><g fill="#4a90e2" fill-opacity="1"><g transform="translate(46.242394, 307.739336)"><g><path d="M 42.921875 -18.5625 L 9.015625 -18.5625 C 9.328125 -14.351562 10.945312 -10.953125 13.875 -8.359375 C 16.800781 -5.765625 20.5 -4.46875 24.96875 -4.46875 C 27.476562 -4.46875 29.785156 -4.914062 31.890625 -5.8125 C 34.003906 -6.71875 35.832031 -8.039062 37.375 -9.78125 L 40.453125 -6.234375 C 38.648438 -4.078125 36.398438 -2.429688 33.703125 -1.296875 C 31.003906 -0.171875 28.039062 0.390625 24.8125 0.390625 C 20.644531 0.390625 16.957031 -0.492188 13.75 -2.265625 C 10.539062 -4.046875 8.035156 -6.5 6.234375 -9.625 C 4.441406 -12.757812 3.546875 -16.304688 3.546875 -20.265625 C 3.546875 -24.222656 4.40625 -27.765625 6.125 -30.890625 C 7.84375 -34.023438 10.203125 -36.460938 13.203125 -38.203125 C 16.210938 -39.953125 19.59375 -40.828125 23.34375 -40.828125 C 27.09375 -40.828125 30.457031 -39.953125 33.4375 -38.203125 C 36.414062 -36.460938 38.75 -34.035156 40.4375 -30.921875 C 42.132812 -27.816406 42.984375 -24.265625 42.984375 -20.265625 Z M 23.34375 -36.140625 C 19.4375 -36.140625 16.160156 -34.890625 13.515625 -32.390625 C 10.867188 -29.898438 9.367188 -26.65625 9.015625 -22.65625 L 37.75 -22.65625 C 37.394531 -26.65625 35.894531 -29.898438 33.25 -32.390625 C 30.601562 -34.890625 27.300781 -36.140625 23.34375 -36.140625 Z M 23.34375 -36.140625 "/></g></g></g><g fill="#4a90e2" fill-opacity="1"><g transform="translate(87.613909, 307.739336)"><g><path d="M 12.859375 -32.59375 C 14.148438 -35.3125 16.066406 -37.363281 18.609375 -38.75 C 21.148438 -40.132812 24.296875 -40.828125 28.046875 -40.828125 L 28.046875 -35.515625 L 26.734375 -35.59375 C 22.472656 -35.59375 19.132812 -34.28125 16.71875 -31.65625 C 14.300781 -29.039062 13.09375 -25.375 13.09375 -20.65625 L 13.09375 0 L 7.625 0 L 7.625 -40.53125 L 12.859375 -40.53125 Z M 12.859375 -32.59375 "/></g></g></g><g fill="#4a90e2" fill-opacity="1"><g transform="translate(113.345619, 307.739336)"><g><path d="M 21.03125 -52.9375 C 18.664062 -52.9375 16.878906 -52.289062 15.671875 -51 C 14.472656 -49.71875 13.875 -47.816406 13.875 -45.296875 L 13.875 -40.53125 L 26.34375 -40.53125 L 26.34375 -35.90625 L 14.015625 -35.90625 L 14.015625 0 L 8.546875 0 L 8.546875 -35.90625 L 1.3125 -35.90625 L 1.3125 -40.53125 L 8.546875 -40.53125 L 8.546875 -45.53125 C 8.546875 -49.226562 9.613281 -52.15625 11.75 -54.3125 C 13.882812 -56.46875 16.898438 -57.546875 20.796875 -57.546875 C 22.335938 -57.546875 23.828125 -57.328125 25.265625 -56.890625 C 26.703125 -56.460938 27.910156 -55.835938 28.890625 -55.015625 L 27.046875 -50.921875 C 25.453125 -52.265625 23.445312 -52.9375 21.03125 -52.9375 Z M 21.03125 -52.9375 "/></g></g></g><g fill="#4a90e2" fill-opacity="1"><g transform="translate(134.300643, 307.739336)"><g><path d="M 42.921875 -18.5625 L 9.015625 -18.5625 C 9.328125 -14.351562 10.945312 -10.953125 13.875 -8.359375 C 16.800781 -5.765625 20.5 -4.46875 24.96875 -4.46875 C 27.476562 -4.46875 29.785156 -4.914062 31.890625 -5.8125 C 34.003906 -6.71875 35.832031 -8.039062 37.375 -9.78125 L 40.453125 -6.234375 C 38.648438 -4.078125 36.398438 -2.429688 33.703125 -1.296875 C 31.003906 -0.171875 28.039062 0.390625 24.8125 0.390625 C 20.644531 0.390625 16.957031 -0.492188 13.75 -2.265625 C 10.539062 -4.046875 8.035156 -6.5 6.234375 -9.625 C 4.441406 -12.757812 3.546875 -16.304688 3.546875 -20.265625 C 3.546875 -24.222656 4.40625 -27.765625 6.125 -30.890625 C 7.84375 -34.023438 10.203125 -36.460938 13.203125 -38.203125 C 16.210938 -39.953125 19.59375 -40.828125 23.34375 -40.828125 C 27.09375 -40.828125 30.457031 -39.953125 33.4375 -38.203125 C 36.414062 -36.460938 38.75 -34.035156 40.4375 -30.921875 C 42.132812 -27.816406 42.984375 -24.265625 42.984375 -20.265625 Z M 23.34375 -36.140625 C 19.4375 -36.140625 16.160156 -34.890625 13.515625 -32.390625 C 10.867188 -29.898438 9.367188 -26.65625 9.015625 -22.65625 L 37.75 -22.65625 C 37.394531 -26.65625 35.894531 -29.898438 33.25 -32.390625 C 30.601562 -34.890625 27.300781 -36.140625 23.34375 -36.140625 Z M 23.34375 -36.140625 "/></g></g></g><g fill="#4a90e2" fill-opacity="1"><g transform="translate(175.672153, 307.739336)"><g><path d="M 24.421875 0.390625 C 20.421875 0.390625 16.835938 -0.484375 13.671875 -2.234375 C 10.515625 -3.984375 8.035156 -6.4375 6.234375 -9.59375 C 4.441406 -12.75 3.546875 -16.304688 3.546875 -20.265625 C 3.546875 -24.222656 4.441406 -27.765625 6.234375 -30.890625 C 8.035156 -34.023438 10.515625 -36.460938 13.671875 -38.203125 C 16.835938 -39.953125 20.421875 -40.828125 24.421875 -40.828125 C 27.910156 -40.828125 31.03125 -40.144531 33.78125 -38.78125 C 36.53125 -37.425781 38.703125 -35.441406 40.296875 -32.828125 L 36.21875 -30.046875 C 34.875 -32.046875 33.175781 -33.546875 31.125 -34.546875 C 29.070312 -35.554688 26.835938 -36.0625 24.421875 -36.0625 C 21.492188 -36.0625 18.859375 -35.40625 16.515625 -34.09375 C 14.179688 -32.78125 12.359375 -30.914062 11.046875 -28.5 C 9.742188 -26.09375 9.09375 -23.347656 9.09375 -20.265625 C 9.09375 -17.128906 9.742188 -14.363281 11.046875 -11.96875 C 12.359375 -9.582031 14.179688 -7.734375 16.515625 -6.421875 C 18.859375 -5.117188 21.492188 -4.46875 24.421875 -4.46875 C 26.835938 -4.46875 29.070312 -4.953125 31.125 -5.921875 C 33.175781 -6.898438 34.875 -8.394531 36.21875 -10.40625 L 40.296875 -7.625 C 38.703125 -5.007812 36.519531 -3.019531 33.75 -1.65625 C 30.976562 -0.289062 27.867188 0.390625 24.421875 0.390625 Z M 24.421875 0.390625 "/></g></g></g><g fill="#4a90e2" fill-opacity="1"><g transform="translate(213.884888, 307.739336)"><g><path d="M 28.96875 -2.46875 C 27.9375 -1.539062 26.664062 -0.832031 25.15625 -0.34375 C 23.644531 0.144531 22.066406 0.390625 20.421875 0.390625 C 16.617188 0.390625 13.6875 -0.632812 11.625 -2.6875 C 9.570312 -4.75 8.546875 -7.65625 8.546875 -11.40625 L 8.546875 -35.90625 L 1.3125 -35.90625 L 1.3125 -40.53125 L 8.546875 -40.53125 L 8.546875 -49.390625 L 14.015625 -49.390625 L 14.015625 -40.53125 L 26.34375 -40.53125 L 26.34375 -35.90625 L 14.015625 -35.90625 L 14.015625 -11.71875 C 14.015625 -9.300781 14.617188 -7.460938 15.828125 -6.203125 C 17.035156 -4.941406 18.769531 -4.3125 21.03125 -4.3125 C 22.164062 -4.3125 23.257812 -4.488281 24.3125 -4.84375 C 25.363281 -5.207031 26.273438 -5.722656 27.046875 -6.390625 Z M 28.96875 -2.46875 "/></g></g></g></svg>